# Blender v2.57 (sub 1) OBJ File: 'test_scene_01_1.blend'
# www.blender.org
mtllib ledder.mtl
o ledder
v 0.724937 -0.000000 -0.000000
v -0.724937 -0.000000 -0.000000
v 0.724937 15.633198 -0.000001
v -0.724937 15.633198 -0.000001
v 0.724937 15.633198 -0.166055
v -0.724937 15.633198 -0.166055
v 0.724937 -0.000000 -0.166054
v -0.724937 -0.000000 -0.166054
vt 1.033488 0.123406
vt 0.001981 0.126570
vt 0.002275 0.222236
vt 1.033782 0.219071
vt 0.002015 0.083914
vt 0.001981 0.094870
vt 0.097646 0.095164
vt 0.097680 0.084207
vt 1.033488 0.109285
vt 1.033522 0.120241
vt 0.002015 0.123406
vt 0.001981 0.112449
vt 0.097714 0.095164
vt 0.193379 0.094870
vt 0.193345 0.083914
vt 1.033522 0.106120
vt 1.033488 0.095164
vt 0.001981 0.098328
vt 0.002015 0.109285
vt 0.002275 0.321066
vt 0.001981 0.225400
vt 1.033488 0.222236
vt 1.033782 0.317901
vn 0.000000 0.000000 1.000000
vn -0.000000 1.000000 0.000000
vn 1.000000 0.000000 0.000000
vn 0.000000 -1.000000 0.000000
vn -1.000000 0.000000 0.000000
vn 0.000000 -0.000000 -1.000000
usemtl Material
s off
f 1/1/1 3/2/1 4/3/1 2/4/1
f 3/5/2 5/6/2 6/7/2 4/8/2
f 1/9/3 7/10/3 5/11/3 3/12/3
f 7/8/4 1/13/4 2/14/4 8/15/4
f 4/16/5 6/17/5 8/18/5 2/19/5
f 7/20/6 8/21/6 6/22/6 5/23/6
