# Blender v2.57 (sub 1) OBJ File: 'test_scene_01_1.blend'
# www.blender.org
mtllib obj01_l.mtl
o obj01_l_obj01.001
v 1.548137 -0.000732 -4.191315
v 1.548139 -0.000732 -10.643486
v 1.548140 -0.000732 -17.095657
v 1.548142 -0.000732 -23.547829
v -1.548134 -0.000732 -23.547829
v -1.548136 -0.000732 -17.095657
v -1.548137 -0.000732 -10.643485
v -1.548139 -0.000732 -4.191314
v -4.644415 -0.000732 -4.191315
v -4.644413 -0.000732 -10.643486
v -4.644412 -0.000732 -17.095657
v -4.644410 -0.000732 -23.547829
v 4.644413 -0.000732 -4.191315
v 4.644415 -0.000732 -10.643486
v 4.644416 -0.000732 -17.095657
v 4.644418 -0.000732 -23.547829
v 4.644413 7.667047 -4.191315
v 4.644415 7.667047 -10.643486
v 4.644416 7.667046 -17.095657
v 4.644418 7.667046 -23.547829
v -4.644415 7.667047 -4.191315
v -4.644413 7.667047 -10.643486
v -4.644412 7.667046 -17.095657
v -4.644410 7.667046 -23.547829
v -1.548141 -0.000731 2.260858
v 1.548136 -0.000731 2.260858
v 1.548143 -0.000733 -30.000000
v -1.548133 -0.000733 -30.000000
v 1.548135 7.667047 2.260857
v -1.548141 7.667047 2.260857
v -4.644417 -0.000731 2.260858
v 4.644412 -0.000731 2.260858
v 4.644420 -0.000733 -30.000000
v -4.644409 -0.000733 -30.000000
v 4.644412 7.667047 2.260857
v 4.644420 7.667046 -30.000000
v -4.644417 7.667047 2.260857
v -4.644409 7.667046 -30.000000
v -0.663812 -0.001737 -25.413980
v 1.205241 -0.001737 -25.413980
v 1.205241 0.157311 -25.413980
v -0.663812 0.157311 -25.413980
v -0.663812 0.157310 -35.544666
v 1.205241 0.157310 -35.544666
v 1.205241 -0.001738 -35.544666
v -0.663812 -0.001738 -35.544666
vt 0.000000 0.000000
vt 1.000000 0.000000
vt 1.000000 1.000000
vt 0.000000 1.000000
vn 0.000000 1.000000 -0.000000
vn -1.000000 0.000000 -0.000000
vn 1.000000 0.000000 0.000000
vn 0.000000 -0.000000 -1.000000
vn -0.000000 0.000000 1.000000
vn 0.000000 -1.000000 0.000000
usemtl Material
s off
f 16/1/1 33/2/1 27/3/1 4/4/1
f 15/1/1 16/2/1 4/3/1 3/4/1
f 14/1/1 15/2/1 3/3/1 2/4/1
f 2/3/1 1/4/1 13/1/1 14/2/1
f 1/3/1 26/4/1 32/1/1 13/2/1
f 4/1/1 27/2/1 28/3/1 5/4/1
f 3/1/1 4/2/1 5/3/1 6/4/1
f 2/1/1 3/2/1 6/3/1 7/4/1
f 1/1/1 2/2/1 7/3/1 8/4/1
f 26/1/1 1/2/1 8/3/1 25/4/1
f 5/1/1 28/2/1 34/3/1 12/4/1
f 6/1/1 5/2/1 12/3/1 11/4/1
f 7/1/1 6/2/1 11/3/1 10/4/1
f 8/1/1 7/2/1 10/3/1 9/4/1
f 25/1/1 8/2/1 9/3/1 31/4/1
f 20/1/2 36/2/2 33/3/2 16/4/2
f 19/1/2 20/2/2 16/3/2 15/4/2
f 18/1/2 19/2/2 15/3/2 14/4/2
f 17/1/2 18/2/2 14/3/2 13/4/2
f 35/1/2 17/2/2 13/3/2 32/4/2
f 12/1/3 34/2/3 38/3/3 24/4/3
f 11/1/3 12/2/3 24/3/3 23/4/3
f 10/1/3 11/2/3 23/3/3 22/4/3
f 9/1/3 10/2/3 22/3/3 21/4/3
f 31/1/3 9/2/3 21/3/3 37/4/3
f 29/1/4 35/2/4 32/3/4 26/4/4
f 30/1/4 29/2/4 26/3/4 25/4/4
f 37/1/4 30/2/4 25/3/4 31/4/4
f 40/1/5 41/2/5 42/3/5 39/4/5
f 40/1/3 45/2/3 44/3/3 41/4/3
f 41/1/1 44/2/1 43/3/1 42/4/1
f 46/1/2 39/2/2 42/3/2 43/4/2
f 39/1/6 46/2/6 45/3/6 40/4/6
f 45/1/4 46/2/4 43/3/4 44/4/4
